<svg width="1600" height="900" viewBox="0 0 1600 900" fill="none" xmlns="http://www.w3.org/2000/svg">
  <rect width="1600" height="900" fill="#0B1020"/>
  <g opacity="0.55">
    <path d="M240 190L545 285" stroke="#7DD3FC" stroke-width="2"/>
    <path d="M545 285L798 188" stroke="#A78BFA" stroke-width="2"/>
    <path d="M798 188L1150 278" stroke="#7DD3FC" stroke-width="2"/>
    <path d="M370 600L545 285" stroke="#7DD3FC" stroke-width="2"/>
    <path d="M370 600L798 188" stroke="#22314F" stroke-width="2"/>
    <path d="M798 188L1230 610" stroke="#22314F" stroke-width="2"/>
    <path d="M545 285L920 520" stroke="#A78BFA" stroke-width="2"/>
    <path d="M920 520L1230 610" stroke="#7DD3FC" stroke-width="2"/>
    <path d="M545 285L240 190" stroke="#22314F" stroke-width="16" opacity="0.2"/>
  </g>
  <circle cx="240" cy="190" r="16" fill="#7DD3FC"/>
  <circle cx="545" cy="285" r="24" fill="#A78BFA"/>
  <circle cx="798" cy="188" r="18" fill="#7DD3FC"/>
  <circle cx="1150" cy="278" r="16" fill="#7DD3FC"/>
  <circle cx="370" cy="600" r="18" fill="#7DD3FC"/>
  <circle cx="920" cy="520" r="22" fill="#A78BFA"/>
  <circle cx="1230" cy="610" r="18" fill="#7DD3FC"/>
  <rect x="165" y="685" width="230" height="54" rx="27" fill="#121A2F" stroke="#22314F"/>
  <rect x="685" y="655" width="210" height="54" rx="27" fill="#121A2F" stroke="#22314F"/>
  <rect x="1110" y="150" width="170" height="54" rx="27" fill="#121A2F" stroke="#22314F"/>
  <text x="205" y="718" fill="#E8EDF7" font-family="Arial, Helvetica, sans-serif" font-size="22">Assumptions</text>
  <text x="730" y="688" fill="#E8EDF7" font-family="Arial, Helvetica, sans-serif" font-size="22">Trust Paths</text>
  <text x="1150" y="183" fill="#E8EDF7" font-family="Arial, Helvetica, sans-serif" font-size="22">Blind Spots</text>
</svg>
